<?xml version="1.0" encoding="UTF-8"?>
<svg enable-background="new 0 0 298 109" version="1.1" viewBox="0 0 298 109" xml:space="preserve" xmlns="http://www.w3.org/2000/svg">
<style type="text/css">
	.st0{fill:#419EDA;}
</style>
		<path class="st0" d="m45.8 56.9c0 3.2-2.6 5.8-5.8 5.8s-5.8-2.6-5.8-5.8 2.6-5.8 5.8-5.8 5.8 2.7 5.8 5.8z"/>
		<path class="st0" d="m53.3 56.9c0 3.2 2.6 5.8 5.8 5.8s5.8-2.6 5.8-5.8-2.6-5.8-5.8-5.8-5.8 2.7-5.8 5.8z"/>
		<path class="st0" d="m92.9 63.2c-0.4 0-0.8 0.1-1.2 0.1-2.6 0-5.1-0.6-7.4-1.7 0.7-4.3 1.1-8.7 1-13.1-2.5-3.6-5.3-6.9-8.4-10 1.4-2.6 3.4-4.8 5.9-6.4l1.1-0.7-0.9-1c-4.4-4.9-9.6-8.7-15.5-11.3l-1.2-0.5-0.4 1.4c-0.7 2.9-2.2 5.5-4.2 7.6-3.9-2.1-8-3.7-12.2-5-4.2 1.2-8.3 2.9-12.2 5-2.1-2.1-3.5-4.7-4.2-7.6l-0.3-1.2-1.2 0.5c-5.9 2.6-11.2 6.5-15.5 11.3l-0.9 1 1.1 0.7c2.6 1.5 4.5 3.7 5.9 6.3-3.2 3.1-5.9 6.5-8.4 10-0.1 4.3 0.2 8.7 1 13.1-2.3 1.1-4.8 1.7-7.3 1.7-0.4 0-0.9 0-1.3-0.1l-1.2-0.1 0.1 1.2c0.7 6.5 2.6 12.6 5.9 18.3l0.7 1.1 1-0.8c2.3-1.9 5-3.2 7.9-3.7 1.9 3.9 4.2 7.6 6.7 11 4.1 1.5 8.4 2.5 12.8 3.2 0.4 2.9 0.1 5.9-1.1 8.7l-0.5 1.2 1.2 0.3c3.2 0.7 6.5 1 9.6 1l9.6-1 1.2-0.3-0.5-1.2c-1.2-2.8-1.5-5.9-1.1-8.8 4.4-0.7 8.7-1.7 12.8-3.2 2.6-3.4 4.8-7.1 6.7-11.1 2.9 0.5 5.6 1.8 7.9 3.7l1 0.8 0.7-1.1c3.4-5.6 5.4-11.8 5.9-18.3l0.1-1.2-0.7 0.2zm-29.6 15.7c-4.5 1.2-9.2 1.8-13.8 1.8s-9.2-0.7-13.8-1.8c-2.5-3.9-4.5-8.1-5.9-12.4s-2.3-8.9-2.5-13.6c2.9-3.7 6.3-6.8 10-9.5s7.8-4.9 12.2-6.6c4.3 1.7 8.4 3.9 12.2 6.6 3.7 2.7 7 5.9 10 9.5-0.2 4.7-1.1 9.2-2.5 13.6-1.4 4.3-3.4 8.5-5.9 12.4z"/>
		<path d="m129.4 29.4c14.7 0 23 10.6 23 27.1 0 2-0.1 3.9-0.4 5.3h-39c0.7 12.5 8.2 20.3 19.2 20.3 5.5 0 10.1-1.8 14.4-4.5l3.4 6.4c-5 3.2-11.2 5.9-19 5.9-15.4 0-27.7-11.3-27.7-30.2 0.3-18.8 13-30.3 26.1-30.3zm14.5 26c0-11.8-5.2-18.3-14.2-18.3-8.1 0-15.4 6.6-16.6 18.3h30.8z"/>
		<path d="m163.5 38.8h-8.5v-7.4l9-0.6 1.2-16.1h8.2v16.1h15.5v8h-15.6v32.1c0 7.1 2.3 11.2 8.9 11.2 2 0 4.6-0.8 6.5-1.5l1.9 7.4c-3.2 1.1-7.1 2.1-10.7 2.1-12.3 0-16.5-7.8-16.5-19.2l0.1-32.1z"/>
		<path d="m220.8 29.4c7.6 0 12.9 3.2 16.9 6.9l-4.9 6.3c-3.4-3-7-5.1-11.6-5.1-10.4 0-18 9-18 22.3 0 13.2 7.2 22.1 17.8 22.1 5.5 0 10.1-2.7 13.5-5.8l4.4 6.4c-5.2 4.6-11.9 7.5-18.8 7.5-15.3 0-27.1-11-27.1-30.2 0-19.4 12.9-30.4 27.8-30.4z"/>
		<path d="m266.4 29.4c6.6 0 11 2.5 16.1 6.7l-0.5-9.9v-22.2h9.9v84.5h-8.1l-0.8-6.8h-0.4c-4.5 4.4-10.7 8.2-17.5 8.2-14.5 0-23.9-10.9-23.9-30.2 0.1-18.7 12-30.3 25.2-30.3zm0.9 52.4c5.3 0 10-2.6 14.7-8v-30.2c-4.9-4.4-9.3-6.1-14-6.1-9.3 0-16.6 8.9-16.6 22.1 0 13.9 5.8 22.2 15.9 22.2z"/>
</svg>
